<!--?xml version="1.0" encoding="utf-8"?-->
<!-- Generator: Adobe Illustrator 24.1.1, SVG Export Plug-In . SVG Version: 6.00 Build 0)  -->
<svg version="1.1" id="_x31_0" xmlns="http://www.w3.org/2000/svg" xmlns:xlink="http://www.w3.org/1999/xlink" x="0px" y="0px" viewBox="0 0 512 512" style="width: 512px; height: 512px; opacity: 1;" xml:space="preserve">
<style type="text/css">
	.st0{fill:#374149;}
</style>
<g>
	<path class="st0" d="M512,21.182v-0.159H0v456.53c0,7.447,6.053,13.424,13.424,13.424h485.235c7.371,0,13.341-5.977,13.341-13.424
		V22.572V21.182L512,21.182z M25.602,62.212c0-8.068,6.439-14.508,14.428-14.508c8.068,0,14.507,6.44,14.507,14.508
		c0,7.992-6.439,14.507-14.507,14.507C32.042,76.72,25.602,70.204,25.602,62.212z M77.576,70.674V53.682
		c0-2.871,2.33-5.197,5.201-5.197h331.402c2.871,0,5.197,2.326,5.197,5.197v16.992c0,2.864-2.326,5.198-5.197,5.198H82.777
		C79.906,75.872,77.576,73.538,77.576,70.674z M454.564,62.246l0.11-0.11l-9.05-8.97l-0.026-0.03l5.974-5.894l8.996,9l9-9
		l5.974,5.894l-9,9l9,9.076l-5.974,5.894l-9-8.992l-8.996,8.992l-5.974-5.894l8.909-8.906l0.057-0.057V62.246z M15.515,475.462
		V103.099h480.97v372.363H15.515z" style="fill: rgb(255, 255, 255);"></path>
	<polygon class="st0" points="415.917,292.136 96.227,292.136 96.227,313.235 415.917,313.235 415.917,292.356 415.917,292.292 
		415.917,292.292 	" style="fill: rgb(255, 255, 255);"></polygon>
	<polygon class="st0" points="415.917,339.455 415.917,339.3 96.227,339.3 96.227,360.401 415.917,360.401 415.917,339.519 
		415.917,339.455 	" style="fill: rgb(255, 255, 255);"></polygon>
	<path class="st0" d="M387.061,397.56c-9.231,0-16.602,7.447-16.602,16.602c0,9.152,7.371,16.598,16.602,16.598
		c9.151,0,16.522-7.446,16.522-16.598C403.583,405.008,396.212,397.56,387.061,397.56z" style="fill: rgb(255, 255, 255);"></path>
	<path class="st0" d="M436.478,397.56c-9.235,0-16.602,7.447-16.602,16.602c0,9.152,7.367,16.598,16.602,16.598
		c9.151,0,16.522-7.446,16.522-16.598C453,405.008,445.629,397.56,436.478,397.56z" style="fill: rgb(255, 255, 255);"></path>
	<path class="st0" d="M168.962,197.894c0-29.091-23.584-52.674-52.75-52.674c-29.09,0-52.674,23.583-52.674,52.674
		c0,29.166,23.584,52.75,52.674,52.75C145.378,250.644,168.962,227.06,168.962,197.894z M79.042,203.856
		c-0.223-1.288-0.378-2.576-0.454-3.864c-0.701-11.098,3.954-22.19,12.258-29.561c8.686-7.758,18.848-10.394,28.079-9.538
		c0.39,0.03,0.724,0.151,1.065,0.262c0.258,0.087,0.504,0.17,0.738,0.295c0.602,0.314,1.094,0.75,1.489,1.265
		c0.17,0.216,0.326,0.436,0.458,0.686c1.038,1.982,0.776,4.663-1.266,6.334l-28.64,23.133L79.042,203.856z" style="fill: rgb(255, 255, 255);"></path>
	<path class="st0" d="M256,250.644c29.17,0,52.754-23.584,52.754-52.75c0-29.091-23.583-52.674-52.754-52.674
		c-29.091,0-52.67,23.583-52.67,52.674C203.33,227.06,226.909,250.644,256,250.644z M222.557,203.856
		c-0.223-1.288-0.378-2.576-0.454-3.864c-0.701-11.098,3.954-22.19,12.258-29.561c8.686-7.758,18.848-10.394,28.079-9.538
		c0.39,0.03,0.724,0.151,1.065,0.262c0.258,0.087,0.503,0.17,0.738,0.295c0.602,0.314,1.094,0.75,1.489,1.265
		c0.17,0.216,0.326,0.436,0.458,0.686c1.038,1.982,0.776,4.663-1.266,6.334l-28.64,23.133L222.557,203.856z" style="fill: rgb(255, 255, 255);"></path>
	<path class="st0" d="M395.792,250.644c29.17,0,52.754-23.584,52.754-52.75c0-29.091-23.583-52.674-52.754-52.674
		c-29.091,0-52.67,23.583-52.67,52.674C343.122,227.06,366.701,250.644,395.792,250.644z M366.072,203.856
		c-0.223-1.288-0.379-2.576-0.454-3.864c-0.701-11.098,3.954-22.19,12.258-29.561c8.686-7.758,18.848-10.394,28.079-9.538
		c0.39,0.03,0.724,0.151,1.065,0.262c0.258,0.087,0.503,0.17,0.738,0.295c0.602,0.314,1.094,0.75,1.489,1.265
		c0.17,0.216,0.326,0.436,0.458,0.686c1.038,1.982,0.776,4.663-1.266,6.334l-28.64,23.133L366.072,203.856z" style="fill: rgb(255, 255, 255);"></path>
	<path class="st0" d="M308.087,397.716H204.061c-5.356,0-9.697,4.345-9.697,9.698v19.78c0,5.356,4.341,9.697,9.697,9.697h104.026
		c5.352,0,9.697-4.341,9.697-9.697v-19.78C317.784,402.06,313.439,397.716,308.087,397.716z" style="fill: rgb(255, 255, 255);"></path>
</g>
</svg>
