<!--?xml version="1.0" encoding="utf-8"?-->
<!-- Generator: Adobe Illustrator 19.1.1, SVG Export Plug-In . SVG Version: 6.00 Build 0)  -->
<svg version="1.1" id="_x31_0" xmlns="http://www.w3.org/2000/svg" xmlns:xlink="http://www.w3.org/1999/xlink" x="0px" y="0px" viewBox="0 0 512 512" style="width: 512px; height: 512px; opacity: 1;" xml:space="preserve">
<style type="text/css">
	.st0{fill:#374149;}
</style>
<g>
	<path class="st0" d="M299.95,400.02c-1.024,4.184-3.414,7.766-6.57,10.242c-0.77,0.594-1.622,1.191-2.562,1.703
		c-0.082,0.086-0.082,0.086-0.082,0.086c-0.855,0.426-1.793,0.855-2.645,1.191c-0.09,0-0.09,0-0.09,0
		c-0.766,0.258-1.535,0.52-2.386,0.684h-0.086c-0.426,0.09-0.77,0.172-1.195,0.258c-0.851,0.086-1.707,0.172-2.562,0.172h-51.625
		c-0.852,0-1.79-0.086-2.645-0.258c-0.34,0-0.683-0.082-1.11-0.172c-0.766-0.164-1.621-0.34-2.39-0.684
		c-0.938-0.336-1.793-0.679-2.73-1.191l-0.082-0.086c-0.855-0.426-1.706-1.02-2.562-1.703c-0.598-0.43-1.109-0.942-1.621-1.454
		c-2.387-2.472-4.18-5.461-4.95-8.789H1.453l-1.293-0.004v0.004H0v16.641c0,23.98,19.457,43.351,43.438,43.351h425.129
		c23.981,0,43.434-19.371,43.434-43.351V400.02H299.95z" style="fill: rgb(255, 255, 255);"></path>
	<path class="st0" d="M54.77,366.43H457.23c12.625,0,22.898-10.274,22.898-22.902V74.891c0-12.625-10.274-22.902-22.898-22.902
		H54.77c-12.625,0-22.898,10.278-22.898,22.902v268.637C31.871,356.156,42.145,366.43,54.77,366.43z M393.695,90.86L111.27,327.805
		H70.488V90.735h183.41L393.695,90.86z" style="fill: rgb(255, 255, 255);"></path>
</g>
</svg>
