<?xml version="1.0" encoding="UTF-8"?><svg id="_レイヤー_1" xmlns="http://www.w3.org/2000/svg" viewBox="0 0 1080 1080"><defs><style>.cls-1{fill:#fff;}.cls-2{fill:#f16609;}</style></defs><rect class="cls-2" width="1080" height="1080" rx="174" ry="174"/><path class="cls-1" d="M540.67,757.8c-58.6,0-113.69-22.82-155.12-64.25-41.43-41.43-64.25-96.52-64.25-155.12s22.82-113.69,64.25-155.12c41.43-41.43,96.52-64.25,155.12-64.25s113.69,22.82,155.12,64.25c41.43,41.43,64.25,96.52,64.25,155.12s-22.82,113.69-64.25,155.12c-41.43,41.43-96.52,64.25-155.12,64.25Zm0-415.37c-108.07,0-195.99,87.92-195.99,195.99s87.92,195.99,195.99,195.99,195.99-87.92,195.99-195.99-87.92-195.99-195.99-195.99Z"/><path class="cls-1" d="M540.67,360.53c-11.07,0-21.89,1.02-32.4,2.95,30.93,14.94,52.27,46.61,52.27,83.26,0,51.04-41.38,92.41-92.41,92.41-44.21,0-81.16-31.04-90.26-72.52-9.7,21.96-15.09,46.24-15.09,71.78,0,98.25,79.65,177.89,177.89,177.89s177.89-79.65,177.89-177.89-79.65-177.89-177.89-177.89Z"/><path class="cls-1" d="M524.47,821.44c-30.24-12.24-256.97,50.91-260.16-2.5-27.81-466.14,187.03-562.78,180.68-581.74-7.4-22.08-393.5,199.46-357.26,791.27,.02,.27,.04,.53,.06,.8,.05,.69,1,2.34,3.21,1.83,.21-.05,.41-.13,.62-.19,132.5-41.04,463.43-197.09,432.84-209.47Z"/><path class="cls-1" d="M554.86,258.38c30.24,12.24,256.97-50.91,260.16,2.5,27.81,466.14-187.03,562.78-180.68,581.74,7.4,22.08,393.5-199.46,357.26-791.27-.02-.27-.04-.53-.06-.8-.05-.69-1-2.34-3.21-1.83-.21,.05-.41,.13-.62,.19-132.5,41.04-463.43,197.09-432.84,209.47Z"/></svg>